<?xml version="1.0" encoding="utf-8"?>
<!-- Generator: Adobe Illustrator 16.0.0, SVG Export Plug-In . SVG Version: 6.00 Build 0)  -->
<!DOCTYPE svg PUBLIC "-//W3C//DTD SVG 1.1//EN" "http://www.w3.org/Graphics/SVG/1.1/DTD/svg11.dtd">
<svg version="1.1" id="Laag_1" xmlns="http://www.w3.org/2000/svg" xmlns:xlink="http://www.w3.org/1999/xlink" x="0px" y="0px"
	 width="60px" height="60px" viewBox="0 0 60 60" enable-background="new 0 0 60 60" xml:space="preserve">
<path fill-rule="evenodd" clip-rule="evenodd" fill="#FFFFFF" d="M27.691,23.261c-0.078-0.122-0.155-0.244-0.233-0.366
	c0.346-0.268,0.726-0.502,1.033-0.808c3.18-3.163,6.355-6.33,9.517-9.512c1.949-1.963,2.438-4.447,1.005-6.246
	c-1.185-1.486-2.558-2.866-4.03-4.068c-1.98-1.62-4.362-1.392-6.158,0.4C20.66,10.807,12.505,18.962,4.358,27.125
	c-1.854,1.858-1.872,4.78-0.005,6.654c8.168,8.198,16.354,16.38,24.547,24.554c1.696,1.691,4.182,1.852,6.089,0.354
	c1.031-0.81,1.946-1.774,2.876-2.707c2.601-2.61,2.591-5.188-0.022-7.812c-3.137-3.149-6.286-6.286-9.426-9.433
	c-0.29-0.29-0.554-0.605-0.98-1.074c0.694,0,1.126,0,1.558,0c8.129,0,16.258,0.006,24.388-0.004c2.907-0.003,4.69-1.798,4.693-4.682
	c0.001-1.602-0.116-3.213,0.026-4.803c0.231-2.599-1.866-5.015-4.972-4.958c-7.807,0.141-15.617,0.046-23.426,0.046
	C29.034,23.261,28.362,23.261,27.691,23.261z"/>
<path fill-rule="evenodd" clip-rule="evenodd" fill="#FFFFFF" d="M27.691,23.261c0.671,0,1.343,0,2.014,0
	c7.809,0,15.62,0.095,23.426-0.046c3.105-0.056,5.203,2.359,4.972,4.958c-0.143,1.589-0.025,3.201-0.026,4.803
	c-0.003,2.884-1.786,4.679-4.693,4.682c-8.13,0.01-16.259,0.004-24.388,0.004c-0.432,0-0.864,0-1.558,0
	c0.426,0.469,0.69,0.784,0.98,1.074c3.14,3.146,6.29,6.283,9.426,9.433c2.613,2.623,2.623,5.201,0.022,7.812
	c-0.93,0.933-1.845,1.897-2.876,2.707c-1.907,1.498-4.393,1.338-6.089-0.354c-8.193-8.174-16.379-16.355-24.547-24.554
	c-1.867-1.874-1.85-4.795,0.005-6.654c8.146-8.164,16.302-16.318,24.466-24.465c1.796-1.792,4.178-2.02,6.158-0.4
	c1.473,1.203,2.846,2.582,4.03,4.068c1.433,1.798,0.944,4.283-1.005,6.246c-3.161,3.182-6.337,6.349-9.517,9.512
	c-0.308,0.306-0.687,0.541-1.033,0.808C27.536,23.017,27.613,23.139,27.691,23.261z"/>
</svg>
