<?xml version="1.0" encoding="utf-8"?>
<!-- Generator: Adobe Illustrator 16.0.0, SVG Export Plug-In . SVG Version: 6.00 Build 0)  -->
<!DOCTYPE svg PUBLIC "-//W3C//DTD SVG 1.1//EN" "http://www.w3.org/Graphics/SVG/1.1/DTD/svg11.dtd">
<svg version="1.1" id="Laag_1" xmlns="http://www.w3.org/2000/svg" xmlns:xlink="http://www.w3.org/1999/xlink" x="0px" y="0px"
	 width="60px" height="60px" viewBox="0 0 60 60" enable-background="new 0 0 60 60" xml:space="preserve">
<path fill="#FFFFFF" d="M3.046,57.188c0-5.037-0.007-9.897,0.018-14.758c0.001-0.303,0.188-0.673,0.407-0.893
	c9.866-9.887,19.745-19.758,29.625-29.631c0.051-0.051,0.123-0.081,0.116-0.076c5.015,5.015,10.017,10.017,15.071,15.072
	c-0.213,0.229-0.461,0.517-0.729,0.785c-9.568,9.579-19.142,19.153-28.697,28.745c-0.53,0.532-1.047,0.78-1.815,0.773
	c-4.24-0.038-8.481-0.02-12.722-0.02C3.941,57.188,3.56,57.188,3.046,57.188z M12.253,52.54c1.143,0,2.113,0.019,3.081-0.011
	c0.368-0.01,0.835-0.012,1.081-0.223c1.083-0.927,2.101-1.929,3.076-2.842c-3.029-3.029-5.875-5.878-8.676-8.68
	c-2.332,1.691-4.158,3.723-2.99,7.113c1.402,0,2.866,0,4.428,0C12.253,49.461,12.253,50.926,12.253,52.54z M14.824,39.288
	c0.201-0.154,0.587-0.394,0.9-0.704c2.646-2.633,5.189-5.379,7.957-7.877c1.248-1.126,2.363-2.33,3.505-3.543
	c2.451-2.605,5.052-5.066,7.542-7.635c0.287-0.297,0.252-0.908,0.365-1.374c-0.512,0.064-1.029,0.101-1.531,0.208
	c-0.16,0.034-0.283,0.254-0.42,0.392C26.905,25,20.668,31.248,14.431,37.495c-0.192,0.192-0.427,0.36-0.561,0.589
	C13.517,38.686,13.882,39.279,14.824,39.288z"/>
<path fill="#FFFFFF" d="M50.781,24.343c-5.023-5.028-9.998-10.006-15.166-15.178c2.447-2.231,4.765-4.706,7.46-6.658
	c1.481-1.073,3.567-0.688,5.021,0.717c2.993,2.893,5.938,5.84,8.84,8.823c1.617,1.662,1.67,4.438,0.072,6.129
	C55.009,20.293,52.874,22.283,50.781,24.343z"/>
<path fill="#FFFFFF" d="M12.253,52.54c0-1.614,0-3.079,0-4.64c-1.562,0-3.025,0-4.428,0c-1.168-3.393,0.658-5.422,2.99-7.114
	c2.801,2.802,5.646,5.649,8.676,8.68c-0.975,0.913-1.993,1.915-3.076,2.843c-0.246,0.211-0.713,0.211-1.081,0.223
	C14.366,52.559,13.396,52.54,12.253,52.54z"/>
<path fill="#FFFFFF" d="M14.824,39.288c-0.941-0.009-1.307-0.604-0.953-1.204c0.134-0.229,0.369-0.396,0.561-0.589
	C20.668,31.248,26.905,25,33.143,18.753c0.139-0.138,0.26-0.357,0.42-0.392c0.504-0.107,1.021-0.144,1.533-0.208
	c-0.115,0.466-0.08,1.077-0.367,1.374c-2.488,2.569-5.091,5.03-7.542,7.635c-1.142,1.213-2.258,2.417-3.505,3.543
	c-2.768,2.499-5.311,5.245-7.957,7.877C15.411,38.896,15.024,39.134,14.824,39.288z"/>
</svg>
